<?xml version="1.0" standalone="no"?>
<!DOCTYPE svg PUBLIC "-//W3C//DTD SVG 20010904//EN"
 "http://www.w3.org/TR/2001/REC-SVG-20010904/DTD/svg10.dtd">
<svg version="1.0" xmlns="http://www.w3.org/2000/svg"
 width="545.000000pt" height="545.000000pt" viewBox="0 0 545.000000 545.000000"
 preserveAspectRatio="xMidYMid meet">
<metadata>
Created by potrace 1.14, written by Peter Selinger 2001-2017
</metadata>
<g transform="translate(0.000000,545.000000) scale(0.100000,-0.100000)"
fill="#000000" stroke="none">
<path d="M2766 4903 c-4 -4 -17 -8 -29 -10 -57 -9 -158 -46 -203 -74 -59 -38
-204 -183 -204 -204 0 -8 -5 -15 -11 -15 -5 0 -8 -4 -5 -9 4 -5 3 -11 -2 -13
-7 -3 -69 -183 -77 -228 -3 -14 -8 -38 -10 -54 -3 -16 -10 -37 -16 -47 -5 -11
-8 -19 -5 -19 2 0 -1 -19 -6 -42 -6 -24 -11 -65 -13 -93 -6 -90 -47 -312 -65
-345 -4 -8 -6 -25 -4 -37 2 -12 -10 -63 -27 -114 -16 -50 -28 -98 -25 -105 3
-8 1 -14 -4 -14 -12 0 -10 -109 3 -134 5 -11 5 -16 0 -13 -6 4 -8 -35 -5 -102
4 -102 3 -110 -16 -120 -12 -6 -23 -8 -26 -3 -9 15 -153 20 -216 8 -19 -4 -67
-23 -107 -42 -39 -18 -74 -34 -78 -34 -5 0 -47 -24 -198 -114 -64 -37 -180
-137 -367 -315 -41 -39 -78 -71 -81 -71 -3 0 -17 -10 -31 -22 -27 -24 -41 -35
-147 -110 -36 -26 -77 -56 -91 -67 -14 -11 -58 -44 -99 -73 -163 -118 -196
-146 -228 -193 -18 -28 -41 -60 -51 -73 -43 -58 -71 -125 -66 -161 10 -90 98
-219 243 -355 30 -28 62 -59 72 -69 11 -9 21 -17 23 -17 2 0 41 -22 87 -48 46
-27 107 -59 134 -73 28 -13 53 -28 57 -34 4 -5 8 -7 8 -3 0 11 285 -137 305
-158 44 -47 103 -56 174 -24 36 17 58 19 135 15 99 -5 184 -13 202 -19 7 -3
17 -42 24 -89 12 -80 11 -171 -5 -435 l-6 -92 995 0 c765 0 995 3 998 12 5 14
-7 98 -26 187 -3 13 -26 67 -51 120 -25 54 -45 101 -45 106 0 4 -7 13 -15 19
-12 9 -12 19 -4 55 5 24 8 49 6 55 -2 6 6 18 17 27 l21 17 -24 26 -25 26 22
16 c26 18 100 116 125 165 20 38 66 70 68 46 0 -6 5 -1 10 12 l9 23 24 -23
c13 -12 30 -23 37 -25 8 -1 22 -5 31 -9 16 -6 17 -2 13 41 -5 42 -4 46 6 26 7
-12 15 -22 19 -22 7 0 13 57 13 122 0 21 3 35 7 33 4 -3 6 11 4 30 -1 20 1 33
6 30 4 -3 2 15 -6 40 -7 25 -11 45 -8 45 3 0 31 -27 62 -59 185 -191 272 -288
352 -391 19 -25 39 -50 45 -56 5 -6 37 -42 70 -79 138 -158 153 -168 319 -235
91 -36 148 -53 190 -55 34 -3 71 -7 83 -9 16 -3 33 5 57 27 33 32 47 78 59
207 8 81 -93 436 -140 491 -7 8 -13 19 -13 23 0 21 -186 248 -300 367 -59 62
-200 255 -226 309 -9 19 -24 46 -34 60 -16 24 -18 49 -6 100 3 14 9 45 12 70
3 25 8 54 12 65 10 33 10 69 0 82 -5 6 -10 35 -11 65 -2 50 -29 107 -49 108
-5 0 -8 11 -8 25 0 53 -24 81 -79 91 -13 3 -37 18 -53 34 -16 17 -42 33 -56
36 -26 6 -138 37 -196 55 -16 5 -38 9 -50 9 -22 0 -208 -89 -214 -102 -2 -5
-15 -8 -28 -8 -28 0 -31 6 -76 160 -33 113 -34 119 -28 480 2 80 0 159 -3 175
-3 17 -9 46 -13 65 -8 45 -10 52 -17 70 -3 8 -13 51 -21 95 -9 44 -19 89 -21
100 -8 33 -14 68 -20 105 -3 19 -10 50 -16 68 -6 18 -12 43 -14 55 -13 89 -75
246 -127 324 -15 23 -28 44 -28 48 0 11 -129 161 -155 181 -15 10 -33 24 -39
30 -30 28 -186 57 -186 35 0 -15 -36 -5 -68 19 -29 21 -122 37 -136 23z
m-1270 -2838 c-1 -25 0 -45 2 -45 2 0 13 12 24 26 22 27 40 18 31 -16 -3 -10
4 -27 16 -39 15 -15 21 -35 22 -68 1 -44 3 -60 12 -125 5 -36 18 -58 33 -58
10 0 14 -13 15 -42 0 -24 2 -51 4 -60 2 -10 0 -20 -5 -23 -4 -2 -50 9 -101 26
-52 16 -114 32 -139 35 -25 3 -60 6 -78 8 -35 4 -49 -7 -102 -82 -29 -41 -31
-42 -58 -28 -15 7 -47 23 -72 34 -47 22 -78 47 -173 140 l-58 56 23 18 c99 80
343 218 384 218 9 0 30 6 47 14 39 17 148 54 163 55 7 1 11 -16 10 -44z"/>
</g>
</svg>
